<svg xmlns="http://www.w3.org/2000/svg" viewBox="0 0 320 320" shape-rendering="crispEdges" ><rect width="320" height="320" fill="#FFFAF1"/><style>.character,.left-eye,.left-pupil,.right-pupil,.left-leg,.right-leg,.slot{transform-box:fill-box}.character{transform-origin:center}.left-eye{transform-origin:center}.slot{transform-origin:center}.character{animation:idle-bounce 1.8s steps(2) infinite}.left-eye{animation:idle-wink 5.4s steps(1) infinite}.left-pupil,.right-pupil{animation:idle-look 5.4s steps(1) infinite}@keyframes idle-bounce{0%,100%{transform:translateY(0)}50%{transform:translateY(-8px)}}@keyframes idle-wink{0%,87%,94%,100%{transform:scaleY(1)}89%,92%{transform:scaleY(.16)}}@keyframes idle-look{0%,48%,100%{transform:translateX(0)}52%,66%{transform:translateX(8px)}70%,84%{transform:translateX(-8px)}}</style><g class="character" fill="#3B78D8"><path d="M112 64h96v8h16v40h-16V80h-96v32H96V72h16z"/><rect x="40" y="104" width="240" height="104"/><rect class="left-leg" x="88" y="208" width="32" height="48"/><rect class="right-leg" x="200" y="208" width="32" height="48"/><g class="left-eye"><path fill="#FFFAF1" d="M72 128h48v8h8v40h-8v8H72v-8h-8v-40h8z"/><rect class="left-pupil" x="88" y="148" width="24" height="24"/></g><g class="right-eye"><path fill="#FFFAF1" d="M200 128h48v8h8v40h-8v8h-48v-8h-8v-40h8z"/><rect class="right-pupil" x="216" y="148" width="24" height="24"/></g><rect class="slot" x="112" y="192" width="96" height="8" fill="#FFFAF1"/></g></svg>
