<svg xmlns="http://www.w3.org/2000/svg" viewBox="0 0 1024 1024" shape-rendering="crispEdges" ><rect width="1024" height="1024" rx="224" fill="#FFFAF1"/><g transform="translate(112 112) scale(10)"><g fill="#3B78D8"><path d="M28 16h24v2h4v10h-4v-8H28v8h-4V18h4z"/><rect x="10" y="26" width="60" height="26"/><rect x="22" y="52" width="8" height="12"/><rect x="50" y="52" width="8" height="12"/></g><g fill="#FFFAF1"><path d="M18 32h12v2h2v10h-2v2H18v-2h-2V34h2zM50 32h12v2h2v10h-2v2H50v-2h-2V34h2z"/></g><g fill="#3B78D8"><rect x="22" y="37" width="6" height="6"/><rect x="54" y="37" width="6" height="6"/></g><rect fill="#FFFAF1" x="28" y="48" width="24" height="2"/></g></svg>
