<svg xmlns="http://www.w3.org/2000/svg" viewBox="0 0 80 80" shape-rendering="crispEdges" ><defs><mask id="stereo-mark" maskUnits="userSpaceOnUse" x="0" y="0" width="80" height="80"><g fill="#fff"><path d="M28 16h24v2h4v10h-4v-8H28v8h-4V18h4z"/><rect x="10" y="26" width="60" height="26"/><rect x="22" y="52" width="8" height="12"/><rect x="50" y="52" width="8" height="12"/></g><g fill="#000"><path d="M18 32h12v2h2v10h-2v2H18v-2h-2V34h2zM50 32h12v2h2v10h-2v2H50v-2h-2V34h2z"/></g><g fill="#fff"><rect x="22" y="37" width="6" height="6"/><rect x="54" y="37" width="6" height="6"/></g><path fill="#000" d="M26 47h28v3H26z"/><path fill="#fff" d="M31 48h5v1h-5zM44 48h5v1h-5z"/></mask></defs><rect width="80" height="80" fill="#3B78D8" mask="url(#stereo-mark)"/></svg>
