<svg xmlns="http://www.w3.org/2000/svg" width="1024" height="1024" viewBox="0 0 1024 1024">
  <defs>
    <filter id="tile-shadow" x="-20%" y="-20%" width="140%" height="150%" color-interpolation-filters="sRGB">
      <feDropShadow dx="0" dy="22" stdDeviation="28" flood-color="#09090b" flood-opacity="0.24" />
    </filter>
    <mask id="stereo-character" maskUnits="userSpaceOnUse" x="0" y="0" width="80" height="80">
      <g fill="#fff">
        <path d="M28 16h24v2h4v10h-4v-8H28v8h-4V18h4z" />
        <rect x="10" y="26" width="60" height="26" />
        <rect x="22" y="52" width="8" height="12" />
        <rect x="50" y="52" width="8" height="12" />
      </g>
      <path fill="#000" d="M18 32h12v2h2v10h-2v2H18v-2h-2V34h2z" />
      <rect x="22" y="37" width="6" height="6" fill="#fff" />
      <path fill="#000" d="M50 32h12v2h2v10h-2v2H50v-2h-2V34h2z" />
      <rect x="54" y="37" width="6" height="6" fill="#fff" />
      <path d="M32 46.5h4v2h8v-2h4v2h-4V50h-8v-1.5h-4z" fill="#000" />
    </mask>
  </defs>

  <rect x="80" y="70" width="864" height="864" rx="210" fill="#fffaf1" filter="url(#tile-shadow)" />
  <rect x="81" y="71" width="862" height="862" rx="209" fill="none" stroke="#24212a" stroke-opacity="0.10" stroke-width="2" />
  <g transform="translate(92 110) scale(10.5)">
    <rect width="80" height="80" fill="#3b78d8" mask="url(#stereo-character)" />
  </g>
</svg>
